<svg class="svg-icon" style="width: 1em; height: 1em;vertical-align: middle;fill: currentColor;overflow: hidden;" viewBox="0 0 1024 1024" version="1.1" xmlns="http://www.w3.org/2000/svg"><path d="M512 909.061224c-218.906122 0-397.061224-178.155102-397.061224-397.061224s178.155102-397.061224 397.061224-397.061224 397.061224 178.155102 397.061224 397.061224-178.155102 397.061224-397.061224 397.061224z" fill="#16C4AF" /><path d="M660.897959 531.853061h-297.795918c-10.971429 0-19.853061-8.881633-19.853061-19.853061s8.881633-19.853061 19.853061-19.853061h297.795918c10.971429 0 19.853061 8.881633 19.853061 19.853061s-8.881633 19.853061-19.853061 19.853061z" fill="#DCFFFA" /><path d="M512 680.75102c-10.971429 0-19.853061-8.881633-19.853061-19.853061v-297.795918c0-10.971429 8.881633-19.853061 19.853061-19.853061s19.853061 8.881633 19.853061 19.853061v297.795918c0 10.971429-8.881633 19.853061-19.853061 19.853061z" fill="#DCFFFA" /></svg>